<?xml version="1.0" encoding="UTF-8"?>
<svg width="99px" height="50px" viewBox="0 0 99 50" version="1.1" xmlns="http://www.w3.org/2000/svg" xmlns:xlink="http://www.w3.org/1999/xlink">
    <!-- Generator: Sketch 58 (84663) - https://sketch.com -->
    <title>McA Mark</title>
    <desc>Created with Sketch.</desc>
    <g id="Symbols" stroke="none" stroke-width="1" fill="none" fill-rule="evenodd">
        <g id="desk/footer" transform="translate(-41.000000, -264.000000)" fill="#E95427">
            <g id="desk/GlobalFooter">
                <path d="M139.519282,312.831046 L139.519282,313.998076 L41.0161589,314 L41.0161589,312.831046 L139.519282,312.831046 Z M139.535185,268.200796 L139.535185,309.798371 L41.03142,309.800935 L41,268.200796 L139.535185,268.200796 Z M132.440026,269.366544 L48.0470672,269.366544 L42.1978091,275.216443 L42.1978091,302.674997 L48.1535106,308.630058 L132.446438,308.630058 L138.364307,302.714112 L138.342505,275.269024 L132.440026,269.366544 Z M42.1978091,304.324229 L42.1978091,308.630058 L46.5029964,308.630058 L42.1978091,304.324229 Z M138.36559,304.362062 L134.096952,308.630058 L138.368154,308.630058 L138.36559,304.362062 Z M60.2928694,278.407245 L67.3758453,291.241371 L74.4581799,278.407245 L80.0047797,278.407245 L80.0047797,281.948733 L77.8598807,281.948733 L77.8746289,297.937047 L79.1500262,297.937047 L79.1500262,301.479817 L72.6018324,301.479817 L72.6018324,297.937047 L74.0452308,297.937047 L74.0452308,286.051293 L68.5800666,295.842164 L66.0658218,295.842164 L60.6006576,286.051293 L60.6006576,297.937047 L62.044056,297.937047 L62.044056,301.479817 L55.5651145,301.479817 L55.5651145,297.937047 L56.8417943,297.937047 L56.8559013,281.948733 L54.7116435,281.948733 L54.7116435,278.407245 L60.2928694,278.407245 Z M89.7183828,278.131326 C94.2698007,278.131326 97.2681707,281.090581 97.2681707,283.708063 C97.2681707,285.453478 96.0928046,286.514707 94.6115739,286.514707 C93.246405,286.514707 92.1095123,285.376531 92.1095123,284.011363 C92.1095123,283.51826 92.3352237,282.948852 92.6391645,282.607079 C92.3352237,282.191565 91.3118279,281.470186 89.6799093,281.470186 C87.7831645,281.470186 85.4311497,283.025158 85.4311497,286.666677 C85.4311497,289.852926 87.8601115,291.863809 90.8193668,291.863809 L91.0080474,291.867576 L91.1957661,291.878557 L101.645817,291.868939 L105.217442,281.913914 L103.422652,281.913914 L103.422652,278.407694 L115.00703,278.407694 L115.00703,281.913914 L113.21224,281.913914 L118.96275,297.937496 L120.231094,297.937496 L120.231094,301.478984 L113.549525,301.478984 L113.549525,297.972763 L114.755029,297.972763 L113.859878,295.357846 L104.4313,295.357846 L103.534867,297.972763 L104.880799,297.972763 L104.880799,301.478984 L98.1998712,301.478984 L98.1998712,297.937496 L99.4682151,297.937496 L100.394145,295.357846 L90.4198834,295.357846 C85.2150567,295.327067 81.2971695,291.920878 81.2971695,286.591012 C81.2971695,282.267229 84.7867182,278.131326 89.7183828,278.131326 Z M122.550663,285.372492 C123.485569,285.372492 124.264658,285.684127 124.88857,286.294574 C125.5112,286.90502 125.823477,287.65846 125.823477,288.542069 C125.823477,289.022347 125.706774,289.4898 125.485551,289.94507 C125.289479,290.337785 124.990557,290.843482 124.580229,291.470268 L124.421117,291.711005 L122.525014,294.582412 L120.718682,294.582412 L122.771244,291.542363 C122.628251,291.594302 122.446784,291.621233 122.251852,291.621233 C121.511236,291.621233 120.834743,291.333964 120.212114,290.776098 C119.589484,290.204766 119.277207,289.464151 119.277207,288.567077 C119.277207,287.684751 119.601667,286.930669 120.238404,286.307398 C120.875141,285.684127 121.654229,285.372492 122.550663,285.372492 Z M109.144,281.81 L105.918943,290.890429 L105.596406,291.865733 L112.690283,291.85932 L112.370312,290.890429 L109.144,281.81 Z M122.550663,286.853081 C122.096675,286.853081 121.692703,287.021723 121.355418,287.346183 C121.030958,287.671285 120.860392,288.073974 120.860392,288.542069 C120.860392,289.009522 121.030958,289.411571 121.355418,289.750138 C121.692703,290.074598 122.096675,290.24324 122.550663,290.24324 C123.577264,290.24324 124.251834,289.51609 124.251834,288.542069 C124.251834,288.073974 124.083191,287.671285 123.745266,287.346183 C123.420164,287.021723 123.018116,286.853081 122.550663,286.853081 Z M122.543609,274.875504 C123.257934,274.875504 123.855556,275.121093 124.361483,275.602653 C124.868692,276.082931 125.127747,276.667087 125.127747,277.355763 C125.127747,277.9925 124.868692,278.499068 124.361483,278.876109 C125.193794,279.291623 125.77795,280.135476 125.77795,281.214017 C125.77795,282.045686 125.466956,282.75937 124.83086,283.356992 C124.193482,283.955255 123.440042,284.254066 122.543609,284.254066 C121.647817,284.254066 120.894377,283.955255 120.258282,283.356992 C119.634369,282.75937 119.322734,282.045686 119.322734,281.214017 C119.322734,280.135476 119.893424,279.304447 120.725094,278.876109 C120.217885,278.499068 119.959471,277.9925 119.959471,277.355763 C119.959471,276.667087 120.205701,276.082931 120.712269,275.602653 C121.218837,275.121093 121.829925,274.875504 122.543609,274.875504 Z M122.543609,279.655198 C122.102446,279.655198 121.725405,279.811015 121.400945,280.122651 C121.089951,280.421462 120.933492,280.785037 120.933492,281.214017 C120.933492,281.642996 121.089951,282.019396 121.400945,282.318207 C121.725405,282.617659 122.102446,282.772836 122.543609,282.772836 C122.985413,282.772836 123.362454,282.617659 123.686914,282.318207 C124.011374,282.006571 124.167192,281.642996 124.167192,281.214017 C124.167192,280.785037 124.011374,280.421462 123.686914,280.122651 C123.362454,279.811015 122.985413,279.655198 122.543609,279.655198 Z M122.543609,276.304154 C121.933804,276.304154 121.452885,276.770966 121.452885,277.355763 C121.452885,277.966851 121.959453,278.447129 122.543609,278.447129 C123.154056,278.447129 123.634334,277.966851 123.634334,277.355763 C123.634334,276.770966 123.154056,276.304154 122.543609,276.304154 Z M138.337376,269.366544 L134.09054,269.366544 L138.342505,273.617227 L138.337376,269.366544 Z M46.3984767,269.366544 L42.1978091,269.366544 L42.1978091,273.565929 L46.3984767,269.366544 Z M139.535185,264 L139.535185,265.16703 L41,265.16703 L41,264 L139.535185,264 Z" id="McA-Mark"></path>
            </g>
        </g>
    </g>
</svg>