<?xml version="1.0" encoding="UTF-8"?>
<svg width="176px" height="63px" viewBox="0 0 176 63" version="1.1" xmlns="http://www.w3.org/2000/svg" xmlns:xlink="http://www.w3.org/1999/xlink">
    <!-- Generator: Sketch 58 (84663) - https://sketch.com -->
    <title>McA Logo</title>
    <desc>Created with Sketch.</desc>
    <g id="Symbols" stroke="none" stroke-width="1" fill="none" fill-rule="evenodd">
        <g id="desk/header/log/find" transform="translate(-30.000000, -41.000000)">
            <g id="Desktop/Header/Full">
                <g>
                    <g id="McA-Logo" transform="translate(30.000000, 41.000000)">
                        <path d="M175.184794,61.1681217 L175.184794,62.6160718 L0.0411075028,62.6218468 L0.0411075028,61.1681217 L175.184794,61.1681217 Z M175.184112,5.74197789 L175.184112,57.4004064 L0.0409500028,57.4061814 L1.42108547e-14,5.74197789 L175.184112,5.74197789 Z M166.022861,7.19045299 L9.09982562,7.19045299 L1.54770011,14.7578035 L1.54770011,48.2528058 L9.23580063,55.9519313 L166.031261,55.9519313 L173.670537,48.3011058 L173.643237,14.8229035 L166.022861,7.19045299 Z M1.54770011,50.3018809 L1.54770011,55.9519313 L7.10587548,55.9519313 L1.54770011,50.3018809 Z M173.672112,50.3480809 L168.161711,55.9519313 L173.676312,55.9519313 L173.672112,50.3480809 Z M173.637462,7.19045299 L168.154361,7.19045299 L173.641662,12.7727784 L173.637462,7.19045299 Z M6.96937547,7.19045299 L1.54770011,7.19045299 L1.54770011,12.7092534 L6.96937547,7.19045299 Z M175.184112,0.525000036 L175.184112,1.97400013 L1.42108547e-14,1.97400013 L1.42108547e-14,0.525000036 L175.184112,0.525000036 Z" id="frame" fill="#D7572A"></path>
                        <path d="M64.3619069,38.9343702 C65.854482,38.9411952 67.3481071,38.9207202 68.8396322,38.9663952 C69.7767573,38.9952702 70.6503573,39.2798202 71.4021574,39.8294952 C72.0610324,40.3109202 72.4952074,40.9382953 72.7361825,41.6848453 C72.9619325,42.3825704 72.9997325,43.0923704 72.9026075,43.8131955 C72.8096825,44.5035705 72.5755324,45.1424956 72.1544824,45.7178956 C71.7607324,46.2560207 71.2446574,46.6581707 70.6209573,46.9416707 C69.8817573,47.2781957 69.0911072,47.4020957 68.2784072,47.4078707 C66.9905821,47.4167957 65.702757,47.4110207 64.4149319,47.4110207 L64.3812006,47.4095114 L64.3403819,47.4068207 L64.3403819,38.9396202 C64.3540319,38.9364702 64.3582319,38.9343702 64.3619069,38.9343702 Z M87.0065234,38.9371002 L87.0065234,40.9368253 L82.4757731,40.9368253 L82.4757731,42.1490504 L86.7445484,42.1490504 L86.7445484,44.1004755 L82.4747231,44.1004755 L82.4747231,45.3830506 L87.1844984,45.3830506 L87.1844984,47.4043007 L79.9478979,47.4043007 L79.9478979,38.9371002 L87.0065234,38.9371002 Z M110.679458,38.9350527 L110.679458,47.4033032 L108.147907,47.4033032 L108.147907,38.9350527 L110.679458,38.9350527 Z M96.7776141,38.9411952 L96.7776141,45.3766456 L101.112539,45.3766456 L101.112539,47.4020957 L94.2177139,47.4020957 L94.2177139,38.9411952 L96.7776141,38.9411952 Z M120.232411,40.7145928 L122.760286,43.2429929 L120.232411,45.7719181 L117.704011,43.2429929 L120.232411,40.7145928 Z M54.6802762,40.6112728 L57.2086764,43.1391479 L54.6802762,45.6675481 L52.1518761,43.1391479 L54.6802762,40.6112728 Z M66.9023821,40.9340953 L66.8916196,40.938689 L66.8777071,40.9472203 L66.8777071,45.4002706 C67.4683321,45.3845206 68.0531821,45.3965956 68.6322572,45.3477706 C69.2916572,45.2926456 69.7930323,44.9666206 70.0949073,44.4095955 C70.4802573,43.6997955 70.5170073,42.9521954 70.2707823,42.2014454 C70.0397823,41.4979453 69.5027072,41.0663953 68.7304322,40.9792453 C68.1282571,40.9099453 67.5124321,40.9445953 66.9023821,40.9340953 Z" id="deli" fill="#D7572A"></path>
                        <path d="M167.818991,37.234 C168.761366,37.234 169.486392,37.9585001 169.486392,38.8609751 C169.486392,39.7839252 168.761366,40.5089503 167.818991,40.5089503 C166.887116,40.5089503 166.142666,39.7839252 166.142666,38.8609751 C166.142666,37.9585001 166.887116,37.234 167.818991,37.234 Z M161.453681,16.1136686 C162.337256,16.4575436 163.146281,16.9358187 163.817756,17.6162187 C164.440406,18.2467437 164.887181,18.9812188 165.041006,19.8684689 C165.154406,20.5210439 165.078281,21.1557689 164.803181,21.757419 C164.447231,22.537044 163.804106,22.9139941 162.972506,22.9134691 C161.959781,22.9124191 161.149181,22.403694 160.794281,21.381519 C160.617356,20.8738439 160.632581,20.3630189 160.820531,19.8590189 C160.862531,19.7461438 160.906106,19.6327438 160.960706,19.5261688 C161.016356,19.4190688 160.977506,19.3728688 160.883531,19.3151188 C160.149581,18.8641438 159.335831,18.6425938 158.497931,18.5244688 C157.413806,18.3706438 156.351731,18.4829938 155.316431,18.8720188 C153.22483,19.6589938 152.809555,22.211019 153.97138,23.6132941 C154.417631,24.1519441 154.973606,24.5493692 155.578931,24.8832692 C156.506606,25.3935692 157.506731,25.7348193 158.481131,26.1374943 C159.560006,26.5837443 160.674581,26.9501943 161.698331,27.5255944 C162.491081,27.9707944 163.223981,28.4957944 163.836656,29.1746195 C164.642006,30.0676445 165.088256,31.1255196 165.231056,32.3114947 C165.371756,33.4796198 165.310856,34.6330449 164.932856,35.7565449 C164.292356,37.6580951 163.004006,38.9453952 161.165456,39.7055952 C160.112306,40.1413452 159.010331,40.3355952 157.876331,40.4027953 C156.402131,40.4904703 154.966256,40.3114452 153.573955,39.8216202 C152.45098,39.4273452 151.395205,38.9060202 150.52948,38.0639201 C149.76088,37.31632 149.168155,36.46477 149.037955,35.3669949 C148.953955,34.6629699 149.05318,33.9799448 149.41018,33.3572948 C149.94043,32.4338197 151.130605,32.1030697 152.165905,32.5377697 C153.299905,33.0149947 153.740905,34.1999198 153.432205,35.3076699 C153.36973,35.5292199 153.290455,35.7444699 153.18493,35.9476449 C153.12718,36.05737 153.15448,36.115645 153.24688,36.18547 C153.954055,36.72307 154.760456,37.02337 155.622506,37.19032 C156.144356,37.291645 156.668306,37.36567 157.201706,37.34362 C158.176631,37.38142 159.095381,37.14832 159.953756,36.70627 C161.001131,36.16657 161.612756,35.2824699 161.856356,34.1390198 C162.120956,32.8947697 161.686781,31.8909697 160.778006,31.0572696 C159.866081,30.2214696 158.775656,29.6849195 157.647956,29.2150445 C156.380081,28.6863695 155.083856,28.2248944 153.83068,27.6594694 C153.105655,27.3318694 152.41108,26.9407443 151.793155,26.4320193 C150.940555,25.7300943 150.391405,24.8318192 150.13783,23.7602941 C149.853805,22.558569 149.79343,21.350019 150.141505,20.1509189 C150.517405,18.8536438 151.23928,17.7747687 152.336005,16.9835937 C153.472105,16.1630186 154.747331,15.6558686 156.146981,15.4831436 C157.967681,15.2589685 159.741131,15.4474436 161.453681,16.1136686 Z M14.475616,15.2619085 L20.5367414,29.2216595 L26.5978668,15.2619085 L31.3443921,15.2619085 L31.3380921,18.1698837 L29.942642,18.1698837 L29.951567,37.43056 L31.3769421,37.43056 L31.3769421,40.3584852 L24.9992417,40.3584852 L24.9992417,37.43056 L26.5616418,37.43056 L26.5196418,23.7543091 L20.4847664,36.62836 L14.552266,23.8372591 L14.568016,37.43056 L16.1298911,37.43056 L16.1298911,40.3584852 L9.70546566,40.3584852 L9.70546566,37.43056 L11.1066908,37.4552351 L11.0883158,18.1698837 L9.69339066,18.1698837 L9.69916566,15.2619085 L14.475616,15.2619085 Z M167.818991,37.5616001 C167.095016,37.5616001 166.559516,38.1469751 166.559516,38.8609751 C166.559516,39.5854752 167.095016,40.1614002 167.829491,40.1614002 C168.544016,40.1614002 169.069017,39.5854752 169.069017,38.8714751 C169.069017,38.1469751 168.544016,37.5616001 167.818991,37.5616001 Z M167.809384,38.0380901 C168.117034,38.0380901 168.255634,38.0874401 168.374809,38.1567401 C168.464059,38.2265651 168.533884,38.3551901 168.533884,38.5142651 C168.533884,38.6927651 168.394759,38.8318901 168.196834,38.8912151 L168.196834,38.8912151 L168.196834,38.9111652 C168.354859,38.9704902 168.444109,39.0896652 168.493984,39.3080652 C168.544384,39.5558652 168.573259,39.6556152 168.613684,39.7149402 L168.613684,39.7149402 L168.206284,39.7149402 C168.156934,39.6556152 168.127009,39.5065152 168.077134,39.3180402 C168.047734,39.1390152 167.948509,39.0597402 167.740084,39.0597402 L167.740084,39.0597402 L167.561584,39.0597402 L167.561584,39.7149402 L167.184109,39.7149402 L167.184109,38.0874401 C167.332684,38.0580401 167.541634,38.0380901 167.809384,38.0380901 Z M167.779984,38.3058401 C167.680759,38.3058401 167.610934,38.3158151 167.571034,38.3252651 L167.571034,38.3252651 L167.571034,38.7919901 L167.749534,38.7919901 C167.958484,38.7919901 168.127009,38.7221651 168.127009,38.5536401 C168.127009,38.4050651 168.017809,38.3058401 167.779984,38.3058401 Z M92.3937063,15.0133735 C95.8387565,15.0133735 98.4999817,16.8508736 98.4999817,19.1545738 C98.4999817,20.5248239 97.6878067,21.312849 96.6231066,21.312849 C95.3347565,21.312849 94.6065814,20.3211239 94.6065814,19.3587988 C94.6065814,18.8920738 94.6905815,18.6883738 94.8024065,18.4547488 C94.2984064,18.1339737 93.5145814,17.8714737 92.3658813,17.8714737 C90.5446562,17.8714737 89.4810061,18.8337988 89.4810061,20.2334489 C89.4810061,21.808449 91.0213562,22.508274 92.8698813,23.2080991 C96.1752816,24.4329242 98.6679817,25.6288742 98.6679817,29.1862745 C98.6679817,32.8313497 95.9511065,34.9014249 92.1695313,34.9014249 C88.528131,34.9014249 85.5876058,32.7735997 85.5876058,30.4399746 C85.5876058,29.0697245 86.3719559,28.1661994 87.520131,28.1661994 C88.752306,28.1661994 89.5371811,29.1279995 89.5371811,30.0614495 C89.5371811,30.5276496 89.4526561,30.8772996 89.2846561,31.2279996 C89.9571811,31.7235997 90.9935312,32.0443747 92.1978813,32.0443747 C94.2149314,32.0443747 95.5027565,31.1109246 95.5027565,29.4482495 C95.5027565,27.8737744 93.9624064,27.1156743 92.1144063,26.4452493 C88.696131,25.1621492 86.2874309,24.0249991 86.2874309,20.4665489 C86.2874309,17.4052737 88.668306,15.0133735 92.3937063,15.0133735 Z M39.3809352,15.032326 C43.0176104,15.032326 45.4116106,17.5098012 45.4116106,19.7006263 C45.4116106,21.1617014 44.4723855,22.0505265 43.2900854,22.0505265 C42.1991354,22.0505265 41.2903603,21.0976514 41.2903603,19.9547264 C41.2903603,19.5420763 41.4720103,19.0653763 41.7145603,18.7797763 C41.4720103,18.4306513 40.6535353,17.8269012 39.3510102,17.8269012 C37.8353351,17.8269012 35.9563599,19.1294263 35.9563599,22.1775765 C35.9563599,24.8456267 37.8962351,26.5287768 40.2597852,26.5287768 L40.4110509,26.5318612 L40.5611353,26.5408518 L48.9081108,26.5335018 L51.762536,18.1991262 L50.3287609,18.1991262 L50.3287609,15.263326 L59.5824116,15.263326 L59.5824116,18.1991262 L58.1491615,18.1991262 L62.7423868,31.6128772 L63.7556368,31.6128772 L63.7556368,34.5775524 L58.4184865,34.5775524 L58.4184865,31.6128772 L59.3813365,31.6128772 L58.6657615,29.453552 L51.134111,29.453552 L50.4185359,31.6128772 L51.493211,31.6128772 L51.493211,34.5775524 L46.1555356,34.5775524 L46.1555356,31.6128772 L47.1687857,31.6128772 L47.9079858,29.453552 L39.9416352,29.453552 C35.7831099,29.427827 32.6535847,26.5760268 32.6535847,22.1145765 C32.6535847,18.4936513 35.4413349,15.032326 39.3809352,15.032326 Z M129.616314,15.363181 L129.616314,19.6319563 L126.590739,19.6319563 L126.590739,18.2795562 L121.129163,18.2795562 L121.129163,23.4119566 L126.119814,23.4119566 L126.119814,26.2117818 L121.129163,26.2117818 L121.129163,31.6360822 L126.619089,31.6360822 L126.619089,30.2836821 L129.644139,30.2836821 L129.644139,34.5519324 L116.446163,34.5519324 L116.446163,31.6061572 L117.963938,31.6061572 L117.963938,18.3089562 L116.446163,18.3089562 L116.446163,15.363181 L129.616314,15.363181 Z M70.2084648,15.363181 L70.2084648,18.3089562 L68.3541647,18.3089562 L68.3541647,31.6360822 L73.42409,31.6360822 L73.42409,29.530832 L76.4769652,29.530832 L76.4769652,34.5519324 L65.1926144,34.5519324 L65.1926144,31.6061572 L65.1894644,31.6061572 L65.1894644,18.3089562 L63.6711643,18.3089562 L63.6711643,15.363181 L70.2084648,15.363181 Z M115.35264,15.3627085 L115.35264,20.0399339 L112.355415,20.0399339 L112.355415,18.2208087 L108.938715,18.2208087 L108.938715,31.6062097 L110.652315,31.6062097 L110.652315,34.5519849 L104.059365,34.5519849 L104.059365,31.6062097 L105.77349,31.6062097 L105.77349,18.2208087 L102.356264,18.2208087 L102.356264,20.0399339 L99.3590393,20.0399339 L99.3590393,15.3627085 L115.35264,15.3627085 Z M137.415347,15.363076 C141.644222,15.363076 144.669797,17.2588512 144.669797,21.1664264 C144.669797,23.5599921 143.311664,25.4093257 141.402497,26.2952833 L141.195872,26.3865018 L144.025097,31.6060522 L145.542872,31.6060522 L145.542872,34.5518274 L141.868397,34.5518274 L138.171347,27.2611519 C137.779172,27.2905519 137.415347,27.3199519 137.050472,27.3199519 C136.560472,27.3199519 136.109482,27.3199519 135.745506,27.302938 L135.537947,27.2905519 L135.537947,31.6060522 L137.252072,31.6060522 L137.252072,34.5518274 L130.855471,34.5518274 L130.855471,31.6060522 L132.373247,31.6060522 L132.373247,18.3088512 L130.855471,18.3088512 L130.855471,15.363076 L137.415347,15.363076 Z M84.3087582,15.3630235 L84.3087582,18.3087987 L82.6508081,18.3087987 L82.6508081,31.6065247 L84.3087582,31.6065247 L84.3087582,34.5512499 L77.8281578,34.5512499 L77.8281578,31.6065247 L79.4861079,31.6065247 L79.4861079,18.3087987 L77.8281578,18.3087987 L77.8281578,15.3630235 L84.3087582,15.3630235 Z M54.8999362,18.1109262 L52.3227111,25.7134518 L52.065461,26.5308768 L57.7323114,26.5261518 L57.4766364,25.7134518 L54.8999362,18.1109262 Z M137.246822,18.3088512 L135.537947,18.3088512 L135.537947,24.4618517 C135.873947,24.4912517 136.322822,24.5201267 137.330822,24.5201267 C139.711697,24.5201267 141.391697,23.2953016 141.391697,21.2835014 C141.391697,19.2711763 139.795172,18.3088512 137.246822,18.3088512 Z M148.471815,13.1709118 L148.594698,13.1738784 C149.363298,13.2085284 150.134523,13.7771034 150.134523,14.8864285 C150.134523,15.8859119 149.552759,17.3035834 147.512576,18.5576616 L147.270648,18.7016038 L146.561897,17.8553037 C147.689073,16.9607037 147.804573,16.3511786 147.840273,15.8503286 C147.213948,15.6713036 146.866398,15.2087785 146.893173,14.5478035 C146.93428,13.5432684 147.616239,13.2042496 148.349271,13.173282 L148.471815,13.1709118 Z" id="mcalister's" fill="#36625A"></path>
                    </g>
                </g>
            </g>
        </g>
    </g>
</svg>